<svg xmlns="http://www.w3.org/2000/svg" viewBox="0 0 24 24"><title>C++</title><path fill="#00599C" d="M10.5 15.97l.41 2.44c-.26.14-.68.27-1.24.39-.57.13-1.24.2-2.01.2-2.21-.04-3.87-.7-4.98-1.96C1.58 15.77 1 14.16 1 12.1c.05-2.29.72-4.08 2.01-5.38C4.3 5.4 5.99 4.75 8.08 4.75c.69 0 1.32.07 1.89.2s.97.26 1.21.4l-.39 2.56-.81-.38c-.34-.12-.78-.18-1.33-.18-1.23-.02-2.21.4-2.94 1.26-.72.86-1.08 2.04-1.08 3.56 0 1.4.34 2.53 1.03 3.38.69.84 1.68 1.28 2.97 1.27.48 0 .91-.06 1.3-.18l.57-.28zm9.18-4.33H21v1.33h-1.32V14.3h-1.33v-1.33h-1.32v-1.33h1.32V10.3H21v1.34zm-4.65 0h1.32v1.33h-1.32V14.3h-1.33v-1.33H12.7v-1.33h1.32V10.3h1.33v1.34z"/></svg>
