<svg xmlns="http://www.w3.org/2000/svg" viewBox="0 0 24 24"><title>Google Cloud</title><path fill="#4285F4" d="M12 6.315l1.778-1.778 0.466-1.983A9.645 9.645 0 0 0 12 2.25 9.75 9.75 0 0 0 2.25 12h2.065A7.688 7.688 0 0 1 12 4.312c.601 0 1.183.071 1.742.2l-1.742 2.003z"/><path fill="#EA4335" d="M19.688 12A7.688 7.688 0 0 1 12 19.688c-2.966 0-5.545-1.682-6.86-4.149l-1.568 1.568A9.74 9.74 0 0 0 12 21.75 9.75 9.75 0 0 0 21.75 12h-2.062z"/><path fill="#FBBC05" d="M5.14 16.107A7.62 7.62 0 0 1 4.313 12c0-2.075.826-3.958 2.166-5.34L4.873 5.054A9.701 9.701 0 0 0 2.25 12a9.7 9.7 0 0 0 1.336 4.946l1.554-1.839z"/><path fill="#34A853" d="M15.498 8.625H12v2.25h5.25C17.13 8.82 15.498 7.5 13.5 7.5V6h-1.5v1.5c-2.349 0-4.25 1.901-4.25 4.25v.001c0 2.349 1.901 4.25 4.25 4.25H12v-2.25H10.25a2 2 0 1 1 2-2V12h1.248a3.37 3.37 0 0 0 .001-.25 3.25 3.25 0 0 0-3.25-3.25z"/></svg>
