<svg xmlns="http://www.w3.org/2000/svg" viewBox="0 0 24 24" fill="#336791"><title>PostgreSQL</title><path d="M12 2C7.03 2 3 3.57 3 5.5v13C3 20.43 7.03 22 12 22s9-1.57 9-3.5v-13C21 3.57 16.97 2 12 2zm7 16.5c0 .83-3.13 1.5-7 1.5s-7-.67-7-1.5V17c1.56.9 4.21 1.5 7 1.5s5.44-.6 7-1.5v1.5zm0-4c0 .83-3.13 1.5-7 1.5s-7-.67-7-1.5V13c1.56.9 4.21 1.5 7 1.5s5.44-.6 7-1.5v1.5zm0-4c0 .83-3.13 1.5-7 1.5s-7-.67-7-1.5V9c1.56.9 4.21 1.5 7 1.5s5.44-.6 7-1.5v1.5zM12 9C8.13 9 5 8.33 5 7.5S8.13 6 12 6s7 .67 7 1.5S15.87 9 12 9z"/></svg>
